<?xml version="1.0" encoding="UTF-8" standalone="no"?>
<!-- Created with Inkscape (http://www.inkscape.org/) -->

<svg
   width="7.9999962mm"
   height="7.9768314mm"
   viewBox="0 0 7.9999962 7.9768314"
   version="1.1"
   id="svg1"
   inkscape:version="1.3.2 (091e20ef0f, 2023-11-25, custom)"
   sodipodi:docname="bha bha bha.svg"
   xmlns:inkscape="http://www.inkscape.org/namespaces/inkscape"
   xmlns:sodipodi="http://sodipodi.sourceforge.net/DTD/sodipodi-0.dtd"
   xmlns="http://www.w3.org/2000/svg"
   xmlns:svg="http://www.w3.org/2000/svg">
  <sodipodi:namedview
     id="namedview1"
     pagecolor="#505050"
     bordercolor="#eeeeee"
     borderopacity="1"
     inkscape:showpageshadow="0"
     inkscape:pageopacity="0"
     inkscape:pagecheckerboard="0"
     inkscape:deskcolor="#d1d1d1"
     inkscape:document-units="mm"
     inkscape:zoom="16.819304"
     inkscape:cx="1.6647538"
     inkscape:cy="23.782197"
     inkscape:window-width="3440"
     inkscape:window-height="1384"
     inkscape:window-x="0"
     inkscape:window-y="0"
     inkscape:window-maximized="1"
     inkscape:current-layer="layer1" />
  <defs
     id="defs1" />
  <g
     inkscape:label="Ebene 1"
     inkscape:groupmode="layer"
     id="layer1"
     transform="translate(-91.281248,-111.91879)">
    <path
       d="m 91.343001,115.12483 q 0.03978,-0.19465 0.114529,-0.28289 0.07475,-0.0882 0.212232,-0.0601 0.08303,0.017 0.132135,0.0681 0.04938,0.0498 0.04689,0.12444 l 0.0068,0.001 q 0.01954,-0.0471 0.05211,-0.0815 0.03257,-0.0345 0.08358,-0.0481 0.05101,-0.0137 0.127234,0.002 0.132035,0.027 0.187428,0.13756 0.05539,0.11058 0.02146,0.27665 l -0.07427,0.36341 -0.971881,-0.19861 z m 0.389942,0.0556 q 0.01836,-0.0898 -0.0033,-0.12971 -0.02135,-0.0412 -0.0758,-0.0524 -0.05581,-0.0114 -0.08865,0.0244 -0.03285,0.0358 -0.05093,0.1243 l -0.02225,0.1089 0.216427,0.0442 z m 0.138863,0.15316 0.253179,0.0517 0.02754,-0.13476 q 0.01891,-0.0926 -0.009,-0.13654 -0.02924,-0.0443 -0.08913,-0.0565 -0.05445,-0.0111 -0.0949,0.0203 -0.04154,0.0298 -0.06157,0.1278 z m 1.084767,-1.40664 -0.113339,0.17653 -0.360083,-0.23118 -0.212416,0.33086 0.360083,0.23118 -0.113339,0.17653 -0.834737,-0.53592 0.113338,-0.17653 0.327348,0.21016 0.212416,-0.33085 -0.327348,-0.21017 0.113339,-0.17653 z m 0.751577,-0.6168 -0.197033,-0.14893 -0.292572,0.21185 0.08,0.23367 -0.18342,0.13282 -0.300654,-1.01216 0.208176,-0.15074 0.868919,0.60067 z m -0.534799,-0.40693 q -0.01948,-0.0151 -0.04967,-0.0378 -0.03019,-0.0227 -0.06119,-0.0466 -0.031,-0.0239 -0.05293,-0.0423 0.01067,0.0266 0.02499,0.0677 0.01463,0.0392 0.02763,0.0761 0.01331,0.035 0.01777,0.0506 l 0.07787,0.22835 0.209301,-0.15156 z m 1.590004,-0.97628 q 0.197297,-0.0233 0.30454,0.02 0.107243,0.0433 0.12372,0.18263 0.01,0.0842 -0.02321,0.14684 -0.03178,0.0625 -0.103436,0.0836 l 8.21e-4,0.007 q 0.05081,0.004 0.09376,0.0239 0.04295,0.0201 0.07195,0.0642 0.029,0.0441 0.03814,0.1214 0.01583,0.13383 -0.07178,0.22114 -0.08761,0.0873 -0.255929,0.1072 l -0.368383,0.0436 -0.116481,-0.9851 z m 0.06962,0.38768 q 0.09106,-0.0108 0.122126,-0.0438 0.03245,-0.0332 0.02592,-0.0884 -0.0067,-0.0566 -0.05102,-0.0765 -0.04433,-0.0199 -0.134008,-0.009 l -0.110376,0.0131 0.02594,0.21937 z m -0.101837,0.17992 0.03034,0.25662 0.136591,-0.0162 q 0.09382,-0.0111 0.126829,-0.0514 0.03285,-0.0417 0.02567,-0.10236 -0.0065,-0.0552 -0.04907,-0.0837 -0.04133,-0.0301 -0.140668,-0.0183 z m 1.67604,0.58844 -0.203187,-0.0522 0.106476,-0.41445 -0.380808,-0.0978 -0.106476,0.41445 -0.203187,-0.0522 0.246832,-0.96076 0.203187,0.0522 -0.0968,0.37677 0.380808,0.0978 0.0968,-0.37677 0.203188,0.0522 z m 0.821531,0.51999 0.07956,-0.23382 -0.292978,-0.21129 -0.196747,0.14931 -0.183675,-0.13247 0.86664,-0.60315 0.208465,0.15034 -0.297587,1.01355 z m 0.218504,-0.63549 q 0.0082,-0.0232 0.0203,-0.059 0.01212,-0.0358 0.02504,-0.0727 0.01293,-0.0369 0.02355,-0.0635 -0.02189,0.0185 -0.05641,0.045 -0.03258,0.0262 -0.06354,0.0501 -0.02902,0.0236 -0.04246,0.0328 l -0.19237,0.14561 0.209592,0.15115 z m 1.426005,1.20322 q 0.08408,0.18 0.07664,0.29541 -0.0074,0.11541 -0.134566,0.17479 -0.07679,0.0359 -0.146703,0.0241 -0.06933,-0.0105 -0.111821,-0.072 l -0.0063,0.003 q 0.01236,0.0494 0.0067,0.0965 -0.0056,0.0471 -0.03841,0.0885 -0.0328,0.0414 -0.103294,0.0743 -0.1221,0.057 -0.232489,0.001 -0.110388,-0.0558 -0.182118,-0.20934 l -0.15698,-0.33608 0.898759,-0.4198 z m -0.346237,0.18779 q 0.03881,0.0831 0.07994,0.1022 0.04172,0.0204 0.09207,-0.003 0.05161,-0.0241 0.05663,-0.0725 0.005,-0.0483 -0.0332,-0.13017 l -0.04704,-0.1007 -0.200144,0.0935 z m -0.202791,-0.0402 -0.23413,0.10936 0.05821,0.12462 q 0.03998,0.0856 0.08858,0.10429 0.04986,0.0181 0.105247,-0.008 0.05035,-0.0235 0.0641,-0.0729 0.01559,-0.0487 -0.02674,-0.13932 z m -0.03263,1.77603 -0.01421,-0.2093 0.426923,-0.029 -0.02664,-0.39227 -0.426924,0.029 -0.01421,-0.2093 0.989686,-0.0672 0.01421,0.20931 -0.388113,0.0263 0.02664,0.39227 0.388112,-0.0264 0.01421,0.2093 z m -0.235851,0.94321 0.246975,0.002 0.108652,-0.34449 -0.203514,-0.13994 0.06812,-0.21597 0.844693,0.63352 -0.07731,0.24512 -1.055729,0.0356 z m 0.671965,0.008 q 0.02461,4.7e-4 0.06241,7.4e-4 0.03779,2.6e-4 0.07691,9.5e-4 0.03912,6.9e-4 0.06771,0.002 -0.02441,-0.015 -0.0604,-0.0394 -0.03508,-0.0227 -0.06751,-0.0446 -0.03152,-0.0201 -0.04443,-0.03 l -0.198632,-0.13695 -0.07773,0.24645 z m -0.694776,1.73157 q -0.144514,0.13633 -0.256421,0.1655 -0.111908,0.0292 -0.208196,-0.0729 -0.05815,-0.0616 -0.06889,-0.13174 -0.01175,-0.0691 0.03324,-0.12876 l -0.0048,-0.005 q -0.04305,0.0272 -0.08952,0.0367 -0.04647,0.009 -0.09606,-0.009 -0.0496,-0.0181 -0.102982,-0.0747 -0.09248,-0.098 -0.07417,-0.22035 0.01831,-0.12231 0.1416,-0.23862 l 0.269827,-0.25455 0.680694,0.72156 z m -0.286978,-0.26979 q -0.0667,0.0629 -0.07194,0.10798 -0.0063,0.046 0.03188,0.0864 0.03909,0.0414 0.08657,0.031 0.04748,-0.0104 0.113167,-0.0724 l 0.08085,-0.0763 -0.151583,-0.16069 z m -0.02547,-0.20517 -0.177323,-0.18797 -0.100049,0.0944 q -0.06872,0.0648 -0.07122,0.11685 -0.0015,0.053 0.0404,0.0975 0.03813,0.0404 0.08931,0.038 0.05112,-4.7e-4 0.123883,-0.0691 z m -1.696482,0.5265 0.194263,-0.0792 0.161537,0.39624 0.364082,-0.14842 -0.161537,-0.39625 0.194262,-0.0792 0.374474,0.91856 -0.194263,0.0792 -0.146852,-0.36022 -0.364082,0.14842 0.146852,0.36022 -0.194262,0.0792 z m -0.969561,0.0721 0.07549,0.23517 0.361185,-0.005 0.06898,-0.23716 0.226436,-0.003 -0.336346,1.00087 -0.256998,0.004 -0.365187,-0.9912 z m 0.203348,0.64051 q 0.0073,0.0235 0.01888,0.0595 0.01161,0.036 0.02324,0.0733 0.01163,0.0374 0.01896,0.065 0.0066,-0.0279 0.01849,-0.0697 0.01056,-0.0404 0.02116,-0.0781 0.0092,-0.0362 0.01457,-0.0516 l 0.06767,-0.23158 -0.258387,0.004 z m -1.862184,-0.11613 q -0.174801,-0.0944 -0.237625,-0.19151 -0.06282,-0.0971 0.0039,-0.22056 0.04028,-0.0746 0.103456,-0.10675 0.06196,-0.0329 0.132687,-0.009 l 0.0033,-0.006 q -0.03938,-0.0323 -0.06295,-0.0735 -0.02356,-0.0412 -0.0219,-0.0939 0.0017,-0.0528 0.03864,-0.12124 0.06404,-0.11857 0.185927,-0.13958 0.121881,-0.021 0.271013,0.0595 l 0.326377,0.17628 -0.471426,0.87279 z m 0.166073,-0.35716 q -0.08068,-0.0436 -0.125103,-0.0344 -0.04565,0.008 -0.07206,0.0574 -0.02707,0.0501 -0.0023,0.0919 0.02479,0.0418 0.104242,0.0847 l 0.09779,0.0528 0.104982,-0.19436 z m 0.186802,-0.0886 0.122808,-0.22737 -0.121016,-0.0654 q -0.08312,-0.0449 -0.133294,-0.0309 -0.05083,0.0152 -0.07988,0.069 -0.02641,0.0489 -0.008,0.0967 0.0165,0.0484 0.10451,0.0959 z m -1.032424,-1.4455 0.136169,0.15959 -0.325515,0.27775 0.255205,0.29909 0.325514,-0.27775 0.136169,0.15959 -0.754601,0.64387 -0.136169,-0.15959 0.295922,-0.2525 -0.255205,-0.29909 -0.295922,0.2525 -0.136169,-0.15959 z m -0.372841,-0.89794 -0.199585,0.14549 0.118094,0.34137 0.246822,-0.009 0.07404,0.21401 -1.055855,-0.005 -0.08403,-0.2429 0.82648,-0.65785 z m -0.544313,0.39411 q -0.02005,0.0143 -0.05055,0.0366 -0.0305,0.0223 -0.06232,0.0451 -0.03182,0.0228 -0.0558,0.0384 0.02853,-0.003 0.07201,-0.004 0.04171,-0.003 0.08079,-0.004 0.03732,-0.003 0.05358,-0.002 l 0.241116,-0.008 -0.08448,-0.24421 z"
       id="text1"
       style="font-weight:bold;font-size:50px;letter-spacing:4;fill:#ffffff;stroke-width:0.0277863"
       aria-label="BHA BHA BHA BHA BHA" />
  </g>
</svg>
