<?xml version="1.0" encoding="UTF-8" standalone="no"?>
<!-- Created with Inkscape (http://www.inkscape.org/) -->

<svg
   width="7.9999709mm"
   height="8.0068102mm"
   viewBox="0 0 7.9999709 8.0068102"
   version="1.1"
   id="svg1"
   inkscape:version="1.3.2 (091e20ef0f, 2023-11-25, custom)"
   sodipodi:docname="krelln.svg"
   xmlns:inkscape="http://www.inkscape.org/namespaces/inkscape"
   xmlns:sodipodi="http://sodipodi.sourceforge.net/DTD/sodipodi-0.dtd"
   xmlns="http://www.w3.org/2000/svg"
   xmlns:svg="http://www.w3.org/2000/svg">
  <sodipodi:namedview
     id="namedview1"
     pagecolor="#505050"
     bordercolor="#eeeeee"
     borderopacity="1"
     inkscape:showpageshadow="0"
     inkscape:pageopacity="0"
     inkscape:pagecheckerboard="0"
     inkscape:deskcolor="#d1d1d1"
     inkscape:document-units="mm"
     inkscape:zoom="23.786088"
     inkscape:cx="31.783284"
     inkscape:cy="9.921766"
     inkscape:window-width="3440"
     inkscape:window-height="1384"
     inkscape:window-x="0"
     inkscape:window-y="0"
     inkscape:window-maximized="1"
     inkscape:current-layer="layer1" />
  <defs
     id="defs1" />
  <g
     inkscape:label="Ebene 1"
     inkscape:groupmode="layer"
     id="layer1"
     transform="translate(-52.122915,-115.62294)">
    <path
       d="m 53.182972,118.98377 -0.03661,0.2065 -0.804108,-0.14255 -0.04703,0.2653 -0.172309,-0.0305 0.130671,-0.7371 0.172309,0.0305 -0.04703,0.2653 z m 0.145612,-1.52408 q 0.133349,0.0774 0.207275,0.17965 0.07342,0.10039 0.07641,0.22255 0.003,0.12216 -0.07854,0.26272 -0.08084,0.13935 -0.18907,0.1986 -0.10753,0.058 -0.233027,0.0446 -0.124801,-0.0146 -0.25815,-0.092 -0.133349,-0.0773 -0.20677,-0.17775 -0.07272,-0.1016 -0.07452,-0.22306 -0.0023,-0.12336 0.07924,-0.26391 0.08084,-0.13936 0.188373,-0.1974 0.106329,-0.0587 0.231129,-0.0442 0.124296,0.0127 0.257645,0.0901 z m -0.363092,0.6259 q 0.13455,0.0781 0.242605,0.0717 0.106853,-0.007 0.17306,-0.12118 0.0676,-0.11653 0.01998,-0.21159 -0.04882,-0.0958 -0.183367,-0.17381 -0.135752,-0.0787 -0.241908,-0.0729 -0.106157,0.006 -0.17306,0.12119 -0.0669,0.11533 -0.01999,0.21159 0.04692,0.0963 0.182671,0.17501 z m 1.718355,-1.10106 -0.180615,0.10658 -0.415024,-0.70333 -0.232049,0.13693 -0.08893,-0.15071 0.644715,-0.38044 0.08893,0.15072 -0.232049,0.13692 z m 1.28182,-0.38697 -0.206122,0.0387 -0.07887,-0.42043 -0.386308,0.0725 0.07887,0.42044 -0.206122,0.0387 -0.182826,-0.97464 0.206122,-0.0387 0.0717,0.38222 0.386307,-0.0725 -0.0717,-0.38221 0.206122,-0.0387 z m 0.929945,0.10899 -0.563722,-0.0897 0.155882,-0.97931 0.563723,0.0897 -0.02707,0.17008 -0.356613,-0.0568 -0.03428,0.21534 0.331924,0.0528 -0.02707,0.17007 -0.331924,-0.0528 -0.04017,0.25237 0.356613,0.0568 z m 1.700038,0.39307 q -0.152641,0.19973 -0.343888,0.21439 -0.1893,0.0144 -0.393448,-0.14161 l -0.222907,-0.17035 0.602133,-0.78791 0.247184,0.18891 q 0.123593,0.0945 0.180347,0.20774 0.05786,0.11414 0.04174,0.23816 -0.01417,0.12376 -0.111157,0.25067 z m -0.176623,-0.12799 q 0.100355,-0.13132 0.08936,-0.23586 -0.01016,-0.10565 -0.119403,-0.18914 l -0.08938,-0.0683 -0.392145,0.51313 0.07173,0.0548 q 0.241667,0.18468 0.439848,-0.0746 z m 0.38123,1.26184 -0.313182,-0.47723 0.829061,-0.54407 0.313182,0.47723 -0.143983,0.0945 -0.19812,-0.3019 -0.1823,0.11963 0.184404,0.281 -0.143983,0.0945 -0.184404,-0.281 -0.213652,0.14021 0.198121,0.3019 z m 0.289318,0.84194 -0.160416,-0.54781 0.951679,-0.27868 0.160415,0.54781 -0.165277,0.0484 -0.10148,-0.34655 -0.209262,0.0613 0.09445,0.32256 -0.165278,0.0484 -0.09445,-0.32256 -0.24525,0.0718 0.101479,0.34655 z m 1.024873,0.66208 q -0.0051,0.19159 -0.09077,0.27683 -0.08429,0.0867 -0.228679,0.0828 -0.08608,-0.002 -0.161472,-0.0404 -0.07401,-0.0381 -0.117556,-0.12402 -0.04359,-0.0845 -0.03973,-0.22891 l 0.0024,-0.0902 -0.352642,-0.009 0.0056,-0.20964 0.991287,0.0265 z m -0.171859,-0.0157 0.0026,-0.0958 -0.294332,-0.008 -0.0019,0.0694 q -0.0024,0.0889 0.03096,0.14115 0.03469,0.0537 0.113822,0.0558 0.144389,0.004 0.148846,-0.16274 z m -1.769075,2.14418 0.149606,-0.18623 0.488562,0.0593 0.0059,-0.1093 -0.276103,-0.2218 0.13134,-0.1635 0.773088,0.62104 -0.131339,0.16349 -0.354062,-0.28442 q 0.0097,0.0345 0.01938,0.069 0.0097,0.0345 0.01938,0.069 l 0.09524,0.42033 -0.146126,0.1819 -0.125571,-0.54446 z m 0.07654,1.14027 q -0.172764,0.10616 -0.292949,0.0936 -0.121368,-0.0118 -0.199897,-0.13961 -0.03563,-0.058 -0.04005,-0.11558 -0.0049,-0.0557 0.0129,-0.10899 0.01732,-0.0514 0.0471,-0.0958 l -0.474627,-0.21532 0.198796,-0.12215 0.400392,0.20061 0.09585,-0.0589 -0.19923,-0.32423 0.17868,-0.10979 0.51916,0.84488 z m -0.07715,-0.15473 0.05443,-0.0335 -0.140333,-0.22838 -0.05798,0.0356 q -0.08875,0.0545 -0.108436,0.10739 -0.02087,0.0536 0.01476,0.11156 0.03708,0.0603 0.09377,0.0597 0.05623,0.001 0.143794,-0.0525 z m -1.660647,-0.2322 0.555526,-0.13124 0.228,0.96507 -0.555526,0.13125 -0.0396,-0.16761 0.351427,-0.083 -0.05013,-0.21221 -0.327098,0.0773 -0.0396,-0.16761 0.327098,-0.0773 -0.05876,-0.24871 -0.351428,0.083 z m -0.320471,0.0209 -0.06445,0.98954 -0.209273,-0.0136 0.05317,-0.8163 -0.401916,-0.0262 0.01128,-0.17324 z m -0.889017,-0.11205 -0.352339,0.92693 -0.196033,-0.0745 0.290655,-0.76466 -0.376486,-0.14311 0.06168,-0.16227 z m -1.491453,-0.9316 0.200692,0.17559 -0.168756,0.84885 0.0042,0.004 q 0.04455,-0.0551 0.0891,-0.11027 0.0435,-0.0561 0.08805,-0.11119 l 0.307275,-0.35122 0.141112,0.12346 -0.65296,0.74633 -0.199646,-0.17468 0.165229,-0.84271 -0.0031,-0.003 q -0.04468,0.0532 -0.0874,0.10623 -0.04272,0.053 -0.08544,0.10609 l -0.309104,0.3533 -0.142156,-0.12437 z"
       id="text1"
       style="font-weight:bold;font-size:50px;letter-spacing:4;fill:#ffffff;stroke-width:0.0277771"
       aria-label="TO THE DEEP  KRELLN" />
  </g>
</svg>
