999
FreeCAD v0.21 33771 (Git)
  0
SECTION
  2
HEADER
  9
$ACADVER
  1
AC1014
  9
$ACADMAINTVER
 70
     9
  9
$DWGCODEPAGE
  3
ANSI_1252
  9
$TEXTSTYLE
  7
STANDARD
  9
$DIMSTYLE
  2
STANDARD
  9
$DIMTXSTY
  7
STANDARD
  9
$CMLSTYLE
  2
STANDARD
  9
$LUNITS
 70
2
  9
$INSUNITS
 70
4
  9
$PEXTMAX
 10
50
 20
50
 30
50
  9
$PEXTMIN
 10
0
 20
0
 30
0
  9
$HANDSEED
  5
FFFF
  0
ENDSEC
  0
SECTION
  2
CLASSES
  0
CLASS
  1
ACDBDICTIONARYWDFLT
  2
AcDbDictionaryWithDefault
  3
ObjectDBX Classes
 90
        0
280
     0
281
     0
  0
CLASS
  1
XRECORD
  2
AcDbXrecord
  3
ObjectDBX Classes
 90
        0
280
     0
281
     0
  0
CLASS
  1
LWPOLYLINE
  2
AcDbPolyline
  3
ObjectDBX Classes
 90
        0
280
     0
281
     1
  0
ENDSEC
  0
SECTION
  2
TABLES
  0
TABLE
  2
VPORT
  5
20
330
0
100
AcDbSymbolTable
 70
     1
  0
VPORT
  5
21
330
20
100
AcDbSymbolTableRecord
100
AcDbViewportTableRecord
  2
*ACTIVE
 70
     0
  0
ENDTAB
  0
TABLE
  2
LTYPE
  5
22
330
0
100
AcDbSymbolTable
 70
     1
  0
LTYPE
  5
23
330
21
100
AcDbSymbolTableRecord
100
AcDbLinetypeTableRecord
  2
BYBLOCK
 70
     0
  3

 72
    65
 73
     0
 40
0.0
  0
LTYPE
  5
24
330
21
100
AcDbSymbolTableRecord
100
AcDbLinetypeTableRecord
  2
BYLAYER
 70
     0
  3

 72
    65
 73
     0
 40
0.0
  0
LTYPE
  5
25
330
21
100
AcDbSymbolTableRecord
100
AcDbLinetypeTableRecord
  2
CONTINUOUS
 70
     0
  3
Solid line
 72
    65
 73
     0
 40
0.0
  0
ENDTAB
  0
TABLE
  2
LAYER
  5
AEC
330
0
100
AcDbSymbolTable
 70
3
  0
LAYER
  5
AED
330
AEC
100
AcDbSymbolTableRecord
100
AcDbLayerTableRecord
  2
0
 70
   0
 62
   7
  6
CONTINUOUS
  0
LAYER
  5
AEE
330
AEC
100
AcDbSymbolTableRecord
100
AcDbLayerTableRecord
  2
none
 70
    0
 62
    7
  6
CONTINUOUS
  0
LAYER
  5
AEF
330
AEC
100
AcDbSymbolTableRecord
100
AcDbLayerTableRecord
  2
Body009
 70
    0
 62
    7
  6
CONTINUOUS
  0
ENDTAB
  0
TABLE
  2
STYLE
  5
70
330
0
100
AcDbSymbolTable
 70
     2
  0
STYLE
  5
71
330
70
100
AcDbSymbolTableRecord
100
AcDbTextStyleTableRecord
  2
STANDARD
 70
     0
 40
0.0
 41
1.0
 50
0.0
 71
     0
 42
2.5
  3
arial.ttf
  4

  0
STYLE
  5
72
330
70
100
AcDbSymbolTableRecord
100
AcDbTextStyleTableRecord
  2
ANNOTATIVE
 70
     0
 40
0.0
 41
1.0
 50
0.0
 71
     0
 42
2.5
  3
arial.ttf
  4

  0
ENDTAB
  0
TABLE
  2
VIEW
  5
73
330
0
100
AcDbSymbolTable
 70
     0
  0
ENDTAB
  0
TABLE
  2
UCS
  5
74
330
0
100
AcDbSymbolTable
 70
     0
  0
ENDTAB
  0
TABLE
  2
APPID
  5
75
330
0
100
AcDbSymbolTable
 70
     2
  0
APPID
  5
76
330
75
100
AcDbSymbolTableRecord
100
AcDbRegAppTableRecord
  2
ACAD
 70
     0
  0
APPID
  5
77
330
75
100
AcDbSymbolTableRecord
100
AcDbRegAppTableRecord
  2
ACADANNOTATIVE
 70
     0
  0
ENDTAB
  0
TABLE
  2
DIMSTYLE
  5
78
330
0
100
AcDbSymbolTable
 70
     2
  0
DIMSTYLE
105
79
330
78
100
AcDbSymbolTableRecord
100
AcDbDimStyleTableRecord
  2
STANDARD
 70
     0
  3

  4

  5

  6

  7

 40
0.0
 41
2.5
 42
0.625
 43
3.75
 44
1.25
 45
0.0
 46
0.0
 47
0.0
 48
0.0
140
2.5
141
2.5
142
0.0
143
0.03937007874016
144
1.0
145
0.0
146
1.0
147
0.625
 71
     0
 72
     0
 73
     0
 74
     0
 75
     0
 76
     0
 77
     1
 78
     8
170
     0
171
     3
172
     1
173
     0
174
     0
175
     0
176
     0
177
     0
178
     0
270
     2
271
     2
272
     2
273
     2
274
     3
340
71
275
     0
280
     0
281
     0
282
     0
283
     0
284
     8
285
     0
286
     0
287
     3
288
     0
  0
ENDTAB
  0
TABLE
  2
BLOCK_RECORD
  5
A01
330
0
100
AcDbSymbolTable
  70
5
  0
BLOCK_RECORD
  5
A02
330
A01
100
AcDbSymbolTableRecord
100
AcDbBlockTableRecord
  2
*MODEL_SPACE
  0
BLOCK_RECORD
  5
A03
330
A01
100
AcDbSymbolTableRecord
100
AcDbBlockTableRecord
  2
*PAPER_SPACE
  0
ENDTAB
  0
ENDSEC
  0
SECTION
  2
BLOCKS
  0
BLOCK
  5
A04
330
A02
100
AcDbEntity
  8
0
100
AcDbBlockBegin
  2
*MODEL_SPACE
 70
   0
 10
0
 20
0
 30
0
  3
*MODEL_SPACE
  1
 
  0
ENDBLK
  5
A05
330
A02
100
AcDbEntity
  8
0
100
AcDbBlockEnd
  0
BLOCK
  5
A06
330
A03
100
AcDbEntity
 67
1
  8
0
100
AcDbBlockBegin
  2
*PAPER_SPACE
 70
   0
 10
0
 20
0
 30
0
  3
*PAPER_SPACE
  1
 
  0
ENDBLK
  5
A07
330
A03
100
AcDbEntity
 67
    1
  8
0
100
AcDbBlockEnd
  0
ENDSEC
  0
SECTION
  2
ENTITIES
  0
LINE
  5
A08
330
A02
100
AcDbEntity
  8
Body009
100
AcDbLine
 10
-161.241
 20
-6.79614
 30
1.01558
 11
-161.241
 21
-7.05761
 31
-1.973
  0
LINE
  5
A09
330
A02
100
AcDbEntity
  8
Body009
100
AcDbLine
 10
-144.955
 20
-6.79614
 30
1.01558
 11
-144.955
 21
-7.05761
 31
-1.973
  0
LINE
  5
A0A
330
A02
100
AcDbEntity
  8
Body009
100
AcDbLine
 10
-161.241
 20
-6.79614
 30
1.01558
 11
-144.955
 21
-6.79614
 31
1.01558
  0
LINE
  5
A0B
330
A02
100
AcDbEntity
  8
Body009
100
AcDbLine
 10
-161.241
 20
-7.05761
 30
-1.973
 11
-144.955
 21
-7.05761
 31
-1.973
  0
LINE
  5
A0C
330
A02
100
AcDbEntity
  8
Body009
100
AcDbLine
 10
-144.955
 20
-6.79614
 30
1.01558
 11
-144.955
 21
-7.05761
 31
-1.973
  0
LINE
  5
A0D
330
A02
100
AcDbEntity
  8
Body009
100
AcDbLine
 10
-144.955
 20
-9.05
 30
1.21277
 11
-144.955
 21
-9.31147
 31
-1.77582
  0
LINE
  5
A0E
330
A02
100
AcDbEntity
  8
Body009
100
AcDbLine
 10
-144.955
 20
-6.79614
 30
1.01558
 11
-144.955
 21
-9.05
 31
1.21277
  0
LINE
  5
A0F
330
A02
100
AcDbEntity
  8
Body009
100
AcDbLine
 10
-144.955
 20
-7.05761
 30
-1.973
 11
-144.955
 21
-9.31147
 31
-1.77582
  0
LINE
  5
A10
330
A02
100
AcDbEntity
  8
Body009
100
AcDbLine
 10
-144.955
 20
-9.05
 30
1.21277
 11
-144.955
 21
-9.31147
 31
-1.77582
  0
LINE
  5
A11
330
A02
100
AcDbEntity
  8
Body009
100
AcDbLine
 10
-115.27
 20
-9.05
 30
1.21277
 11
-115.27
 21
-9.31147
 31
-1.77582
  0
LINE
  5
A12
330
A02
100
AcDbEntity
  8
Body009
100
AcDbLine
 10
-144.955
 20
-9.05
 30
1.21277
 11
-115.27
 21
-9.05
 31
1.21277
  0
LINE
  5
A13
330
A02
100
AcDbEntity
  8
Body009
100
AcDbLine
 10
-144.955
 20
-9.31147
 30
-1.77582
 11
-115.27
 21
-9.31147
 31
-1.77582
  0
LINE
  5
A14
330
A02
100
AcDbEntity
  8
Body009
100
AcDbLine
 10
-115.27
 20
-9.05
 30
1.21277
 11
-115.27
 21
-9.31147
 31
-1.77582
  0
LINE
  5
A15
330
A02
100
AcDbEntity
  8
Body009
100
AcDbLine
 10
-114.646
 20
-9.11556
 30
1.2185
 11
-114.646
 21
-9.37702
 31
-1.77008
  0
ARC
  5
A16
330
A02
100
AcDbEntity
  8
Body009
100
AcDbCircle
 10
-115.27
 20
-12.0275
 30
1.47326
 40
2.97746
100
AcDbArc
 50
77.9098
 51
90
  0
ARC
  5
A17
330
A02
100
AcDbEntity
  8
Body009
100
AcDbCircle
 10
-115.27
 20
-12.2889
 30
-1.51532
 40
2.97746
100
AcDbArc
 50
77.9098
 51
90
  0
LINE
  5
A18
330
A02
100
AcDbEntity
  8
Body009
100
AcDbLine
 10
-114.646
 20
-9.11556
 30
1.2185
 11
-114.646
 21
-9.37702
 31
-1.77008
  0
LINE
  5
A19
330
A02
100
AcDbEntity
  8
Body009
100
AcDbLine
 10
-18.5402
 20
-29.5436
 30
3.00572
 11
-18.5402
 21
-29.805
 31
0.0171399
  0
LINE
  5
A1A
330
A02
100
AcDbEntity
  8
Body009
100
AcDbLine
 10
-114.646
 20
-9.11556
 30
1.2185
 11
-18.5402
 21
-29.5436
 31
3.00572
  0
LINE
  5
A1B
330
A02
100
AcDbEntity
  8
Body009
100
AcDbLine
 10
-114.646
 20
-9.37702
 30
-1.77008
 11
-18.5402
 21
-29.805
 31
0.0171399
  0
LINE
  5
A1C
330
A02
100
AcDbEntity
  8
Body009
100
AcDbLine
 10
-17.9165
 20
-29.6091
 30
3.01146
 11
-17.9165
 21
-29.8706
 31
0.0228754
  0
LINE
  5
A1D
330
A02
100
AcDbEntity
  8
Body009
100
AcDbLine
 10
-18.5402
 20
-29.5436
 30
3.00572
 11
-18.5402
 21
-29.805
 31
0.0171399
  0
ARC
  5
A1E
330
A02
100
AcDbEntity
  8
Body009
100
AcDbCircle
 10
-17.9165
 20
-26.6317
 30
2.75097
 40
2.97746
100
AcDbArc
 50
-102.09
 51
-90
  0
ARC
  5
A1F
330
A02
100
AcDbEntity
  8
Body009
100
AcDbCircle
 10
-17.9165
 20
-26.8931
 30
-0.237619
 40
2.97746
100
AcDbArc
 50
-102.09
 51
-90
  0
LINE
  5
A20
330
A02
100
AcDbEntity
  8
Body009
100
AcDbLine
 10
-17.9165
 20
-29.6091
 30
3.01146
 11
-17.9165
 21
-29.8706
 31
0.0228754
  0
LINE
  5
A21
330
A02
100
AcDbEntity
  8
Body009
100
AcDbLine
 10
17.9165
 20
-29.6091
 30
3.01146
 11
17.9165
 21
-29.8706
 31
0.0228754
  0
LINE
  5
A22
330
A02
100
AcDbEntity
  8
Body009
100
AcDbLine
 10
-17.9165
 20
-29.6091
 30
3.01146
 11
17.9165
 21
-29.6091
 31
3.01146
  0
LINE
  5
A23
330
A02
100
AcDbEntity
  8
Body009
100
AcDbLine
 10
-17.9165
 20
-29.8706
 30
0.0228754
 11
17.9165
 21
-29.8706
 31
0.0228754
  0
LINE
  5
A24
330
A02
100
AcDbEntity
  8
Body009
100
AcDbLine
 10
18.5402
 20
-29.5436
 30
3.00572
 11
18.5402
 21
-29.805
 31
0.0171399
  0
LINE
  5
A25
330
A02
100
AcDbEntity
  8
Body009
100
AcDbLine
 10
17.9165
 20
-29.6091
 30
3.01146
 11
17.9165
 21
-29.8706
 31
0.0228754
  0
ARC
  5
A26
330
A02
100
AcDbEntity
  8
Body009
100
AcDbCircle
 10
17.9165
 20
-26.6317
 30
2.75097
 40
2.97796
100
AcDbArc
 50
-90
 51
-77.9098
  0
ARC
  5
A27
330
A02
100
AcDbEntity
  8
Body009
100
AcDbCircle
 10
17.9165
 20
-26.8931
 30
-0.237619
 40
2.97796
100
AcDbArc
 50
-90
 51
-77.9098
  0
LINE
  5
A28
330
A02
100
AcDbEntity
  8
Body009
100
AcDbLine
 10
18.5402
 20
-29.5436
 30
3.00572
 11
18.5402
 21
-29.805
 31
0.0171399
  0
LINE
  5
A29
330
A02
100
AcDbEntity
  8
Body009
100
AcDbLine
 10
114.646
 20
-9.11556
 30
1.2185
 11
114.646
 21
-9.37702
 31
-1.77008
  0
LINE
  5
A2A
330
A02
100
AcDbEntity
  8
Body009
100
AcDbLine
 10
18.5402
 20
-29.5436
 30
3.00572
 11
114.646
 21
-9.11556
 31
1.2185
  0
LINE
  5
A2B
330
A02
100
AcDbEntity
  8
Body009
100
AcDbLine
 10
18.5402
 20
-29.805
 30
0.0171399
 11
114.646
 21
-9.37702
 31
-1.77008
  0
LINE
  5
A2C
330
A02
100
AcDbEntity
  8
Body009
100
AcDbLine
 10
114.646
 20
-9.11556
 30
1.2185
 11
114.646
 21
-9.37702
 31
-1.77008
  0
LINE
  5
A2D
330
A02
100
AcDbEntity
  8
Body009
100
AcDbLine
 10
115.27
 20
-9.05
 30
1.21277
 11
115.27
 21
-9.31147
 31
-1.77582
  0
ARC
  5
A2E
330
A02
100
AcDbEntity
  8
Body009
100
AcDbCircle
 10
115.27
 20
-12.0275
 30
1.47326
 40
2.97796
100
AcDbArc
 50
90
 51
102.09
  0
ARC
  5
A2F
330
A02
100
AcDbEntity
  8
Body009
100
AcDbCircle
 10
115.27
 20
-12.2889
 30
-1.51532
 40
2.97796
100
AcDbArc
 50
90
 51
102.09
  0
LINE
  5
A30
330
A02
100
AcDbEntity
  8
Body009
100
AcDbLine
 10
115.27
 20
-9.05
 30
1.21277
 11
115.27
 21
-9.31147
 31
-1.77582
  0
LINE
  5
A31
330
A02
100
AcDbEntity
  8
Body009
100
AcDbLine
 10
144.955
 20
-9.05
 30
1.21277
 11
144.955
 21
-9.31147
 31
-1.77582
  0
LINE
  5
A32
330
A02
100
AcDbEntity
  8
Body009
100
AcDbLine
 10
115.27
 20
-9.05
 30
1.21277
 11
144.955
 21
-9.05
 31
1.21277
  0
LINE
  5
A33
330
A02
100
AcDbEntity
  8
Body009
100
AcDbLine
 10
115.27
 20
-9.31147
 30
-1.77582
 11
144.955
 21
-9.31147
 31
-1.77582
  0
LINE
  5
A34
330
A02
100
AcDbEntity
  8
Body009
100
AcDbLine
 10
144.955
 20
-9.05
 30
1.21277
 11
144.955
 21
-9.31147
 31
-1.77582
  0
LINE
  5
A35
330
A02
100
AcDbEntity
  8
Body009
100
AcDbLine
 10
144.955
 20
-6.79614
 30
1.01558
 11
144.955
 21
-7.05761
 31
-1.973
  0
LINE
  5
A36
330
A02
100
AcDbEntity
  8
Body009
100
AcDbLine
 10
144.955
 20
-9.05
 30
1.21277
 11
144.955
 21
-6.79614
 31
1.01558
  0
LINE
  5
A37
330
A02
100
AcDbEntity
  8
Body009
100
AcDbLine
 10
144.955
 20
-9.31147
 30
-1.77582
 11
144.955
 21
-7.05761
 31
-1.973
  0
LINE
  5
A38
330
A02
100
AcDbEntity
  8
Body009
100
AcDbLine
 10
144.955
 20
-6.79614
 30
1.01558
 11
144.955
 21
-7.05761
 31
-1.973
  0
LINE
  5
A39
330
A02
100
AcDbEntity
  8
Body009
100
AcDbLine
 10
165.44
 20
-6.79614
 30
1.01558
 11
165.44
 21
-7.05761
 31
-1.973
  0
LINE
  5
A3A
330
A02
100
AcDbEntity
  8
Body009
100
AcDbLine
 10
144.955
 20
-6.79614
 30
1.01558
 11
165.44
 21
-6.79614
 31
1.01558
  0
LINE
  5
A3B
330
A02
100
AcDbEntity
  8
Body009
100
AcDbLine
 10
144.955
 20
-7.05761
 30
-1.973
 11
165.44
 21
-7.05761
 31
-1.973
  0
LINE
  5
A3C
330
A02
100
AcDbEntity
  8
Body009
100
AcDbLine
 10
172.968
 20
3.87081
 30
0.0823443
 11
172.968
 21
3.60934
 31
-2.90624
  0
LINE
  5
A3D
330
A02
100
AcDbEntity
  8
Body009
100
AcDbLine
 10
165.44
 20
-6.79614
 30
1.01558
 11
165.44
 21
-7.05761
 31
-1.973
  0
ARC
  5
A3E
330
A02
100
AcDbEntity
  8
Body009
100
AcDbCircle
 10
165.44
 20
1.17341
 30
0.318336
 40
7.99652
100
AcDbArc
 50
-90
 51
19.7138
  0
ARC
  5
A3F
330
A02
100
AcDbEntity
  8
Body009
100
AcDbCircle
 10
165.44
 20
0.911947
 30
-2.67025
 40
7.99652
100
AcDbArc
 50
-90
 51
19.7138
  0
LINE
  5
A40
330
A02
100
AcDbEntity
  8
Body009
100
AcDbLine
 10
172.968
 20
3.87081
 30
0.0823443
 11
172.968
 21
3.60934
 31
-2.90624
  0
LINE
  5
A41
330
A02
100
AcDbEntity
  8
Body009
100
AcDbLine
 10
139.994
 20
95.1969
 30
-7.90765
 11
139.994
 21
94.9355
 31
-10.8962
  0
LINE
  5
A42
330
A02
100
AcDbEntity
  8
Body009
100
AcDbLine
 10
172.968
 20
3.87081
 30
0.0823443
 11
139.994
 21
95.1969
 31
-7.90765
  0
LINE
  5
A43
330
A02
100
AcDbEntity
  8
Body009
100
AcDbLine
 10
172.968
 20
3.60934
 30
-2.90624
 11
139.994
 21
94.9355
 31
-10.8962
  0
LINE
  5
A44
330
A02
100
AcDbEntity
  8
Body009
100
AcDbLine
 10
132.466
 20
100.469
 30
-8.36891
 11
132.466
 21
100.208
 31
-11.3575
  0
LINE
  5
A45
330
A02
100
AcDbEntity
  8
Body009
100
AcDbLine
 10
139.994
 20
95.1969
 30
-7.90765
 11
139.994
 21
94.9355
 31
-10.8962
  0
ARC
  5
A46
330
A02
100
AcDbEntity
  8
Body009
100
AcDbCircle
 10
132.466
 20
92.4995
 30
-7.67166
 40
7.96956
100
AcDbArc
 50
19.7138
 51
90.0002
  0
ARC
  5
A47
330
A02
100
AcDbEntity
  8
Body009
100
AcDbCircle
 10
132.466
 20
92.2381
 30
-10.6602
 40
7.96956
100
AcDbArc
 50
19.7138
 51
90.0002
  0
LINE
  5
A48
330
A02
100
AcDbEntity
  8
Body009
100
AcDbLine
 10
103.473
 20
100.469
 30
-8.36891
 11
103.473
 21
100.208
 31
-11.3575
  0
LINE
  5
A49
330
A02
100
AcDbEntity
  8
Body009
100
AcDbLine
 10
132.466
 20
100.469
 30
-8.36891
 11
132.466
 21
100.208
 31
-11.3575
  0
LINE
  5
A4A
330
A02
100
AcDbEntity
  8
Body009
100
AcDbLine
 10
103.473
 20
100.469
 30
-8.36891
 11
132.466
 21
100.469
 31
-8.36891
  0
LINE
  5
A4B
330
A02
100
AcDbEntity
  8
Body009
100
AcDbLine
 10
103.473
 20
100.208
 30
-11.3575
 11
132.466
 21
100.208
 31
-11.3575
  0
LINE
  5
A4C
330
A02
100
AcDbEntity
  8
Body009
100
AcDbLine
 10
103.473
 20
100.469
 30
-8.36891
 11
103.473
 21
100.208
 31
-11.3575
  0
LINE
  5
A4D
330
A02
100
AcDbEntity
  8
Body009
100
AcDbLine
 10
72.3688
 20
93.8577
 30
-7.79049
 11
72.3688
 21
93.5962
 31
-10.7791
  0
LINE
  5
A4E
330
A02
100
AcDbEntity
  8
Body009
100
AcDbLine
 10
103.473
 20
100.469
 30
-8.36891
 11
72.3688
 21
93.8577
 31
-7.79049
  0
LINE
  5
A4F
330
A02
100
AcDbEntity
  8
Body009
100
AcDbLine
 10
103.473
 20
100.208
 30
-11.3575
 11
72.3688
 21
93.5962
 31
-10.7791
  0
LINE
  5
A50
330
A02
100
AcDbEntity
  8
Body009
100
AcDbLine
 10
72.005
 20
95.5561
 30
-7.93908
 11
72.005
 21
95.2947
 31
-10.9277
  0
LINE
  5
A51
330
A02
100
AcDbEntity
  8
Body009
100
AcDbLine
 10
72.3688
 20
93.8577
 30
-7.79049
 11
72.3688
 21
93.5962
 31
-10.7791
  0
LINE
  5
A52
330
A02
100
AcDbEntity
  8
Body009
100
AcDbLine
 10
72.005
 20
95.5561
 30
-7.93908
 11
72.3688
 21
93.8577
 31
-7.79049
  0
LINE
  5
A53
330
A02
100
AcDbEntity
  8
Body009
100
AcDbLine
 10
72.005
 20
95.2947
 30
-10.9277
 11
72.3688
 21
93.5962
 31
-10.7791
  0
LINE
  5
A54
330
A02
100
AcDbEntity
  8
Body009
100
AcDbLine
 10
72.005
 20
95.5561
 30
-7.93908
 11
72.005
 21
95.2947
 31
-10.9277
  0
LINE
  5
A55
330
A02
100
AcDbEntity
  8
Body009
100
AcDbLine
 10
23.3606
 20
85.2164
 30
-7.03447
 11
23.3606
 21
84.955
 31
-10.0231
  0
LINE
  5
A56
330
A02
100
AcDbEntity
  8
Body009
100
AcDbLine
 10
72.005
 20
95.5561
 30
-7.93908
 11
23.3606
 21
85.2164
 31
-7.03447
  0
LINE
  5
A57
330
A02
100
AcDbEntity
  8
Body009
100
AcDbLine
 10
72.005
 20
95.2947
 30
-10.9277
 11
23.3606
 21
84.955
 31
-10.0231
  0
LINE
  5
A58
330
A02
100
AcDbEntity
  8
Body009
100
AcDbLine
 10
23.3606
 20
85.2164
 30
-7.03447
 11
23.3606
 21
84.955
 31
-10.0231
  0
LINE
  5
A59
330
A02
100
AcDbEntity
  8
Body009
100
AcDbLine
 10
22.7369
 20
85.1509
 30
-7.02874
 11
22.7369
 21
84.8894
 31
-10.0173
  0
ARC
  5
A5A
330
A02
100
AcDbEntity
  8
Body009
100
AcDbCircle
 10
22.7369
 20
88.1283
 30
-7.28923
 40
2.97796
100
AcDbArc
 50
-90
 51
-77.9098
  0
ARC
  5
A5B
330
A02
100
AcDbEntity
  8
Body009
100
AcDbCircle
 10
22.7369
 20
87.8669
 30
-10.2778
 40
2.97796
100
AcDbArc
 50
-90
 51
-77.9098
  0
LINE
  5
A5C
330
A02
100
AcDbEntity
  8
Body009
100
AcDbLine
 10
22.7369
 20
85.1509
 30
-7.02874
 11
22.7369
 21
84.8894
 31
-10.0173
  0
LINE
  5
A5D
330
A02
100
AcDbEntity
  8
Body009
100
AcDbLine
 10
-22.7369
 20
85.1509
 30
-7.02874
 11
-22.7369
 21
84.8894
 31
-10.0173
  0
LINE
  5
A5E
330
A02
100
AcDbEntity
  8
Body009
100
AcDbLine
 10
22.7369
 20
85.1509
 30
-7.02874
 11
-22.7369
 21
85.1509
 31
-7.02874
  0
LINE
  5
A5F
330
A02
100
AcDbEntity
  8
Body009
100
AcDbLine
 10
22.7369
 20
84.8894
 30
-10.0173
 11
-22.7369
 21
84.8894
 31
-10.0173
  0
LINE
  5
A60
330
A02
100
AcDbEntity
  8
Body009
100
AcDbLine
 10
-22.7369
 20
85.1509
 30
-7.02874
 11
-22.7369
 21
84.8894
 31
-10.0173
  0
LINE
  5
A61
330
A02
100
AcDbEntity
  8
Body009
100
AcDbLine
 10
-23.3606
 20
85.2164
 30
-7.03447
 11
-23.3606
 21
84.955
 31
-10.0231
  0
ARC
  5
A62
330
A02
100
AcDbEntity
  8
Body009
100
AcDbCircle
 10
-22.7369
 20
88.1283
 30
-7.28923
 40
2.97746
100
AcDbArc
 50
-102.09
 51
-90
  0
ARC
  5
A63
330
A02
100
AcDbEntity
  8
Body009
100
AcDbCircle
 10
-22.7369
 20
87.8669
 30
-10.2778
 40
2.97746
100
AcDbArc
 50
-102.09
 51
-90
  0
LINE
  5
A64
330
A02
100
AcDbEntity
  8
Body009
100
AcDbLine
 10
-23.3606
 20
85.2164
 30
-7.03447
 11
-23.3606
 21
84.955
 31
-10.0231
  0
LINE
  5
A65
330
A02
100
AcDbEntity
  8
Body009
100
AcDbLine
 10
-72.005
 20
95.5561
 30
-7.93908
 11
-72.005
 21
95.2947
 31
-10.9277
  0
LINE
  5
A66
330
A02
100
AcDbEntity
  8
Body009
100
AcDbLine
 10
-23.3606
 20
85.2164
 30
-7.03447
 11
-72.005
 21
95.5561
 31
-7.93908
  0
LINE
  5
A67
330
A02
100
AcDbEntity
  8
Body009
100
AcDbLine
 10
-23.3606
 20
84.955
 30
-10.0231
 11
-72.005
 21
95.2947
 31
-10.9277
  0
LINE
  5
A68
330
A02
100
AcDbEntity
  8
Body009
100
AcDbLine
 10
-72.005
 20
95.5561
 30
-7.93908
 11
-72.005
 21
95.2947
 31
-10.9277
  0
LINE
  5
A69
330
A02
100
AcDbEntity
  8
Body009
100
AcDbLine
 10
-72.3688
 20
93.8577
 30
-7.79049
 11
-72.3688
 21
93.5962
 31
-10.7791
  0
LINE
  5
A6A
330
A02
100
AcDbEntity
  8
Body009
100
AcDbLine
 10
-72.005
 20
95.5561
 30
-7.93908
 11
-72.3688
 21
93.8577
 31
-7.79049
  0
LINE
  5
A6B
330
A02
100
AcDbEntity
  8
Body009
100
AcDbLine
 10
-72.005
 20
95.2947
 30
-10.9277
 11
-72.3688
 21
93.5962
 31
-10.7791
  0
LINE
  5
A6C
330
A02
100
AcDbEntity
  8
Body009
100
AcDbLine
 10
-72.3688
 20
93.8577
 30
-7.79049
 11
-72.3688
 21
93.5962
 31
-10.7791
  0
LINE
  5
A6D
330
A02
100
AcDbEntity
  8
Body009
100
AcDbLine
 10
-103.473
 20
100.469
 30
-8.36891
 11
-103.473
 21
100.208
 31
-11.3575
  0
LINE
  5
A6E
330
A02
100
AcDbEntity
  8
Body009
100
AcDbLine
 10
-72.3688
 20
93.8577
 30
-7.79049
 11
-103.473
 21
100.469
 31
-8.36891
  0
LINE
  5
A6F
330
A02
100
AcDbEntity
  8
Body009
100
AcDbLine
 10
-72.3688
 20
93.5962
 30
-10.7791
 11
-103.473
 21
100.208
 31
-11.3575
  0
LINE
  5
A70
330
A02
100
AcDbEntity
  8
Body009
100
AcDbLine
 10
-103.473
 20
100.469
 30
-8.36891
 11
-103.473
 21
100.208
 31
-11.3575
  0
LINE
  5
A71
330
A02
100
AcDbEntity
  8
Body009
100
AcDbLine
 10
-132.176
 20
100.469
 30
-8.36891
 11
-132.176
 21
100.208
 31
-11.3575
  0
LINE
  5
A72
330
A02
100
AcDbEntity
  8
Body009
100
AcDbLine
 10
-103.473
 20
100.469
 30
-8.36891
 11
-132.176
 21
100.469
 31
-8.36891
  0
LINE
  5
A73
330
A02
100
AcDbEntity
  8
Body009
100
AcDbLine
 10
-103.473
 20
100.208
 30
-11.3575
 11
-132.176
 21
100.208
 31
-11.3575
  0
LINE
  5
A74
330
A02
100
AcDbEntity
  8
Body009
100
AcDbLine
 10
-139.802
 20
94.9081
 30
-7.88238
 11
-139.802
 21
94.6466
 31
-10.871
  0
LINE
  5
A75
330
A02
100
AcDbEntity
  8
Body009
100
AcDbLine
 10
-132.176
 20
100.469
 30
-8.36891
 11
-132.176
 21
100.208
 31
-11.3575
  0
ARC
  5
A76
330
A02
100
AcDbEntity
  8
Body009
100
AcDbCircle
 10
-132.176
 20
92.4995
 30
-7.67166
 40
7.99722
100
AcDbArc
 50
90
 51
162.472
  0
ARC
  5
A77
330
A02
100
AcDbEntity
  8
Body009
100
AcDbCircle
 10
-132.176
 20
92.2381
 30
-10.6602
 40
7.99722
100
AcDbArc
 50
90
 51
162.472
  0
LINE
  5
A78
330
A02
100
AcDbEntity
  8
Body009
100
AcDbLine
 10
-168.867
 20
3.58199
 30
0.107613
 11
-168.867
 21
3.32053
 31
-2.88097
  0
LINE
  5
A79
330
A02
100
AcDbEntity
  8
Body009
100
AcDbLine
 10
-139.802
 20
94.9081
 30
-7.88238
 11
-139.802
 21
94.6466
 31
-10.871
  0
LINE
  5
A7A
330
A02
100
AcDbEntity
  8
Body009
100
AcDbLine
 10
-168.867
 20
3.58199
 30
0.107613
 11
-139.802
 21
94.9081
 31
-7.88238
  0
LINE
  5
A7B
330
A02
100
AcDbEntity
  8
Body009
100
AcDbLine
 10
-168.867
 20
3.32053
 30
-2.88097
 11
-139.802
 21
94.6466
 31
-10.871
  0
LINE
  5
A7C
330
A02
100
AcDbEntity
  8
Body009
100
AcDbLine
 10
-161.241
 20
-6.79614
 30
1.01558
 11
-161.241
 21
-7.05761
 31
-1.973
  0
LINE
  5
A7D
330
A02
100
AcDbEntity
  8
Body009
100
AcDbLine
 10
-168.867
 20
3.58199
 30
0.107613
 11
-168.867
 21
3.32053
 31
-2.88097
  0
ARC
  5
A7E
330
A02
100
AcDbEntity
  8
Body009
100
AcDbCircle
 10
-161.241
 20
1.17341
 30
0.318336
 40
7.96956
100
AcDbArc
 50
162.472
 51
-90
  0
ARC
  5
A7F
330
A02
100
AcDbEntity
  8
Body009
100
AcDbCircle
 10
-161.241
 20
0.911947
 30
-2.67025
 40
7.96956
100
AcDbArc
 50
162.472
 51
-90
  0
LINE
  5
A80
330
A02
100
AcDbEntity
  8
Body009
100
AcDbLine
 10
33.1634
 20
83.0829
 30
-6.84782
 11
33.1634
 21
82.8215
 31
-9.8364
  0
LINE
  5
A81
330
A02
100
AcDbEntity
  8
Body009
100
AcDbLine
 10
33.1634
 20
83.0829
 30
-6.84782
 11
33.1634
 21
82.8215
 31
-9.8364
  0
CIRCLE
  5
A82
330
A02
100
AcDbEntity
  8
Body009
100
AcDbCircle
 10
31.6634
 20
83.0829
 40
1.5
  0
CIRCLE
  5
A83
330
A02
100
AcDbEntity
  8
Body009
100
AcDbCircle
 10
31.6634
 20
82.8215
 40
1.5
  0
LINE
  5
A84
330
A02
100
AcDbEntity
  8
Body009
100
AcDbLine
 10
-30.1634
 20
83.0829
 30
-6.84782
 11
-30.1634
 21
82.8215
 31
-9.8364
  0
LINE
  5
A85
330
A02
100
AcDbEntity
  8
Body009
100
AcDbLine
 10
-30.1634
 20
83.0829
 30
-6.84782
 11
-30.1634
 21
82.8215
 31
-9.8364
  0
CIRCLE
  5
A86
330
A02
100
AcDbEntity
  8
Body009
100
AcDbCircle
 10
-31.6634
 20
83.0829
 40
1.5
  0
CIRCLE
  5
A87
330
A02
100
AcDbEntity
  8
Body009
100
AcDbCircle
 10
-31.6634
 20
82.8215
 40
1.5
  0
LINE
  5
A88
330
A02
100
AcDbEntity
  8
Body009
100
AcDbLine
 10
119.18
 20
98.3863
 30
-8.18669
 11
119.18
 21
98.1248
 31
-11.1753
  0
LINE
  5
A89
330
A02
100
AcDbEntity
  8
Body009
100
AcDbLine
 10
119.18
 20
98.3863
 30
-8.18669
 11
119.18
 21
98.1248
 31
-11.1753
  0
CIRCLE
  5
A8A
330
A02
100
AcDbEntity
  8
Body009
100
AcDbCircle
 10
117.68
 20
98.3863
 40
1.5
  0
CIRCLE
  5
A8B
330
A02
100
AcDbEntity
  8
Body009
100
AcDbCircle
 10
117.68
 20
98.1248
 40
1.5
  0
LINE
  5
A8C
330
A02
100
AcDbEntity
  8
Body009
100
AcDbLine
 10
32.6363
 20
-22.9679
 30
2.43043
 11
32.6363
 21
-23.2294
 31
-0.558156
  0
LINE
  5
A8D
330
A02
100
AcDbEntity
  8
Body009
100
AcDbLine
 10
32.6363
 20
-22.9679
 30
2.43043
 11
32.6363
 21
-23.2294
 31
-0.558156
  0
CIRCLE
  5
A8E
330
A02
100
AcDbEntity
  8
Body009
100
AcDbCircle
 10
31.1363
 20
-22.9679
 40
1.5
  0
CIRCLE
  5
A8F
330
A02
100
AcDbEntity
  8
Body009
100
AcDbCircle
 10
31.1363
 20
-23.2294
 40
1.5
  0
LINE
  5
A90
330
A02
100
AcDbEntity
  8
Body009
100
AcDbLine
 10
-29.6363
 20
-22.9679
 30
2.43043
 11
-29.6363
 21
-23.2294
 31
-0.558156
  0
LINE
  5
A91
330
A02
100
AcDbEntity
  8
Body009
100
AcDbLine
 10
-29.6363
 20
-22.9679
 30
2.43043
 11
-29.6363
 21
-23.2294
 31
-0.558156
  0
CIRCLE
  5
A92
330
A02
100
AcDbEntity
  8
Body009
100
AcDbCircle
 10
-31.1363
 20
-22.9679
 40
1.5
  0
CIRCLE
  5
A93
330
A02
100
AcDbEntity
  8
Body009
100
AcDbCircle
 10
-31.1363
 20
-23.2294
 40
1.5
  0
LINE
  5
A94
330
A02
100
AcDbEntity
  8
Body009
100
AcDbLine
 10
-116.18
 20
98.3863
 30
-8.18669
 11
-116.18
 21
98.1248
 31
-11.1753
  0
LINE
  5
A95
330
A02
100
AcDbEntity
  8
Body009
100
AcDbLine
 10
-116.18
 20
98.3863
 30
-8.18669
 11
-116.18
 21
98.1248
 31
-11.1753
  0
CIRCLE
  5
A96
330
A02
100
AcDbEntity
  8
Body009
100
AcDbCircle
 10
-117.68
 20
98.3863
 40
1.5
  0
CIRCLE
  5
A97
330
A02
100
AcDbEntity
  8
Body009
100
AcDbCircle
 10
-117.68
 20
98.1248
 40
1.5
  0
LINE
  5
A98
330
A02
100
AcDbEntity
  8
Body009
100
AcDbLine
 10
154.377
 20
-4.7382
 30
0.835536
 11
154.377
 21
-4.99967
 31
-2.15305
  0
LINE
  5
A99
330
A02
100
AcDbEntity
  8
Body009
100
AcDbLine
 10
154.377
 20
-4.7382
 30
0.835536
 11
154.377
 21
-4.99967
 31
-2.15305
  0
CIRCLE
  5
A9A
330
A02
100
AcDbEntity
  8
Body009
100
AcDbCircle
 10
152.877
 20
-4.7382
 40
1.5
  0
CIRCLE
  5
A9B
330
A02
100
AcDbEntity
  8
Body009
100
AcDbCircle
 10
152.877
 20
-4.99967
 40
1.5
  0
LINE
  5
A9C
330
A02
100
AcDbEntity
  8
Body009
100
AcDbLine
 10
-151.377
 20
-4.7382
 30
0.835536
 11
-151.377
 21
-4.99967
 31
-2.15305
  0
LINE
  5
A9D
330
A02
100
AcDbEntity
  8
Body009
100
AcDbLine
 10
-151.377
 20
-4.7382
 30
0.835536
 11
-151.377
 21
-4.99967
 31
-2.15305
  0
CIRCLE
  5
A9E
330
A02
100
AcDbEntity
  8
Body009
100
AcDbCircle
 10
-152.877
 20
-4.7382
 40
1.5
  0
CIRCLE
  5
A9F
330
A02
100
AcDbEntity
  8
Body009
100
AcDbCircle
 10
-152.877
 20
-4.99967
 40
1.5
  0
LINE
  5
AA0
330
A02
100
AcDbEntity
  8
Body009
100
AcDbLine
 10
-161.241
 20
-6.79614
 30
1.01558
 11
-144.955
 21
-6.79614
 31
1.01558
  0
LINE
  5
AA1
330
A02
100
AcDbEntity
  8
Body009
100
AcDbLine
 10
-144.955
 20
-6.79614
 30
1.01558
 11
-144.955
 21
-9.05
 31
1.21277
  0
LINE
  5
AA2
330
A02
100
AcDbEntity
  8
Body009
100
AcDbLine
 10
-144.955
 20
-9.05
 30
1.21277
 11
-115.27
 21
-9.05
 31
1.21277
  0
ARC
  5
AA3
330
A02
100
AcDbEntity
  8
Body009
100
AcDbCircle
 10
-115.27
 20
-12.0275
 30
1.47326
 40
2.97746
100
AcDbArc
 50
77.9098
 51
90
  0
LINE
  5
AA4
330
A02
100
AcDbEntity
  8
Body009
100
AcDbLine
 10
-114.646
 20
-9.11556
 30
1.2185
 11
-18.5402
 21
-29.5436
 31
3.00572
  0
ARC
  5
AA5
330
A02
100
AcDbEntity
  8
Body009
100
AcDbCircle
 10
-17.9165
 20
-26.6317
 30
2.75097
 40
2.97746
100
AcDbArc
 50
-102.09
 51
-90
  0
LINE
  5
AA6
330
A02
100
AcDbEntity
  8
Body009
100
AcDbLine
 10
-17.9165
 20
-29.6091
 30
3.01146
 11
17.9165
 21
-29.6091
 31
3.01146
  0
ARC
  5
AA7
330
A02
100
AcDbEntity
  8
Body009
100
AcDbCircle
 10
17.9165
 20
-26.6317
 30
2.75097
 40
2.97796
100
AcDbArc
 50
-90
 51
-77.9098
  0
LINE
  5
AA8
330
A02
100
AcDbEntity
  8
Body009
100
AcDbLine
 10
18.5402
 20
-29.5436
 30
3.00572
 11
114.646
 21
-9.11556
 31
1.2185
  0
ARC
  5
AA9
330
A02
100
AcDbEntity
  8
Body009
100
AcDbCircle
 10
115.27
 20
-12.0275
 30
1.47326
 40
2.97796
100
AcDbArc
 50
90
 51
102.09
  0
LINE
  5
AAA
330
A02
100
AcDbEntity
  8
Body009
100
AcDbLine
 10
115.27
 20
-9.05
 30
1.21277
 11
144.955
 21
-9.05
 31
1.21277
  0
LINE
  5
AAB
330
A02
100
AcDbEntity
  8
Body009
100
AcDbLine
 10
144.955
 20
-9.05
 30
1.21277
 11
144.955
 21
-6.79614
 31
1.01558
  0
LINE
  5
AAC
330
A02
100
AcDbEntity
  8
Body009
100
AcDbLine
 10
144.955
 20
-6.79614
 30
1.01558
 11
165.44
 21
-6.79614
 31
1.01558
  0
ARC
  5
AAD
330
A02
100
AcDbEntity
  8
Body009
100
AcDbCircle
 10
165.44
 20
1.17341
 30
0.318336
 40
7.99652
100
AcDbArc
 50
-90
 51
19.7138
  0
LINE
  5
AAE
330
A02
100
AcDbEntity
  8
Body009
100
AcDbLine
 10
172.968
 20
3.87081
 30
0.0823443
 11
139.994
 21
95.1969
 31
-7.90765
  0
ARC
  5
AAF
330
A02
100
AcDbEntity
  8
Body009
100
AcDbCircle
 10
132.466
 20
92.4995
 30
-7.67166
 40
7.96956
100
AcDbArc
 50
19.7138
 51
90.0002
  0
LINE
  5
AB0
330
A02
100
AcDbEntity
  8
Body009
100
AcDbLine
 10
103.473
 20
100.469
 30
-8.36891
 11
132.466
 21
100.469
 31
-8.36891
  0
LINE
  5
AB1
330
A02
100
AcDbEntity
  8
Body009
100
AcDbLine
 10
103.473
 20
100.469
 30
-8.36891
 11
72.3688
 21
93.8577
 31
-7.79049
  0
LINE
  5
AB2
330
A02
100
AcDbEntity
  8
Body009
100
AcDbLine
 10
72.005
 20
95.5561
 30
-7.93908
 11
72.3688
 21
93.8577
 31
-7.79049
  0
LINE
  5
AB3
330
A02
100
AcDbEntity
  8
Body009
100
AcDbLine
 10
72.005
 20
95.5561
 30
-7.93908
 11
23.3606
 21
85.2164
 31
-7.03447
  0
ARC
  5
AB4
330
A02
100
AcDbEntity
  8
Body009
100
AcDbCircle
 10
22.7369
 20
88.1283
 30
-7.28923
 40
2.97796
100
AcDbArc
 50
-90
 51
-77.9098
  0
LINE
  5
AB5
330
A02
100
AcDbEntity
  8
Body009
100
AcDbLine
 10
22.7369
 20
85.1509
 30
-7.02874
 11
-22.7369
 21
85.1509
 31
-7.02874
  0
ARC
  5
AB6
330
A02
100
AcDbEntity
  8
Body009
100
AcDbCircle
 10
-22.7369
 20
88.1283
 30
-7.28923
 40
2.97746
100
AcDbArc
 50
-102.09
 51
-90
  0
LINE
  5
AB7
330
A02
100
AcDbEntity
  8
Body009
100
AcDbLine
 10
-23.3606
 20
85.2164
 30
-7.03447
 11
-72.005
 21
95.5561
 31
-7.93908
  0
LINE
  5
AB8
330
A02
100
AcDbEntity
  8
Body009
100
AcDbLine
 10
-72.005
 20
95.5561
 30
-7.93908
 11
-72.3688
 21
93.8577
 31
-7.79049
  0
LINE
  5
AB9
330
A02
100
AcDbEntity
  8
Body009
100
AcDbLine
 10
-72.3688
 20
93.8577
 30
-7.79049
 11
-103.473
 21
100.469
 31
-8.36891
  0
LINE
  5
ABA
330
A02
100
AcDbEntity
  8
Body009
100
AcDbLine
 10
-103.473
 20
100.469
 30
-8.36891
 11
-132.176
 21
100.469
 31
-8.36891
  0
ARC
  5
ABB
330
A02
100
AcDbEntity
  8
Body009
100
AcDbCircle
 10
-132.176
 20
92.4995
 30
-7.67166
 40
7.99722
100
AcDbArc
 50
90
 51
162.472
  0
LINE
  5
ABC
330
A02
100
AcDbEntity
  8
Body009
100
AcDbLine
 10
-168.867
 20
3.58199
 30
0.107613
 11
-139.802
 21
94.9081
 31
-7.88238
  0
ARC
  5
ABD
330
A02
100
AcDbEntity
  8
Body009
100
AcDbCircle
 10
-161.241
 20
1.17341
 30
0.318336
 40
7.96956
100
AcDbArc
 50
162.472
 51
-90
  0
CIRCLE
  5
ABE
330
A02
100
AcDbEntity
  8
Body009
100
AcDbCircle
 10
31.6634
 20
83.0829
 40
1.5
  0
CIRCLE
  5
ABF
330
A02
100
AcDbEntity
  8
Body009
100
AcDbCircle
 10
-31.6634
 20
83.0829
 40
1.5
  0
CIRCLE
  5
AC0
330
A02
100
AcDbEntity
  8
Body009
100
AcDbCircle
 10
117.68
 20
98.3863
 40
1.5
  0
CIRCLE
  5
AC1
330
A02
100
AcDbEntity
  8
Body009
100
AcDbCircle
 10
31.1363
 20
-22.9679
 40
1.5
  0
CIRCLE
  5
AC2
330
A02
100
AcDbEntity
  8
Body009
100
AcDbCircle
 10
-31.1363
 20
-22.9679
 40
1.5
  0
CIRCLE
  5
AC3
330
A02
100
AcDbEntity
  8
Body009
100
AcDbCircle
 10
-117.68
 20
98.3863
 40
1.5
  0
CIRCLE
  5
AC4
330
A02
100
AcDbEntity
  8
Body009
100
AcDbCircle
 10
152.877
 20
-4.7382
 40
1.5
  0
CIRCLE
  5
AC5
330
A02
100
AcDbEntity
  8
Body009
100
AcDbCircle
 10
-152.877
 20
-4.7382
 40
1.5
  0
LINE
  5
AC6
330
A02
100
AcDbEntity
  8
Body009
100
AcDbLine
 10
-161.241
 20
-7.05761
 30
-1.973
 11
-144.955
 21
-7.05761
 31
-1.973
  0
LINE
  5
AC7
330
A02
100
AcDbEntity
  8
Body009
100
AcDbLine
 10
-144.955
 20
-7.05761
 30
-1.973
 11
-144.955
 21
-9.31147
 31
-1.77582
  0
LINE
  5
AC8
330
A02
100
AcDbEntity
  8
Body009
100
AcDbLine
 10
-144.955
 20
-9.31147
 30
-1.77582
 11
-115.27
 21
-9.31147
 31
-1.77582
  0
ARC
  5
AC9
330
A02
100
AcDbEntity
  8
Body009
100
AcDbCircle
 10
-115.27
 20
-12.2889
 30
-1.51532
 40
2.97746
100
AcDbArc
 50
77.9098
 51
90
  0
LINE
  5
ACA
330
A02
100
AcDbEntity
  8
Body009
100
AcDbLine
 10
-114.646
 20
-9.37702
 30
-1.77008
 11
-18.5402
 21
-29.805
 31
0.0171399
  0
ARC
  5
ACB
330
A02
100
AcDbEntity
  8
Body009
100
AcDbCircle
 10
-17.9165
 20
-26.8931
 30
-0.237619
 40
2.97746
100
AcDbArc
 50
-102.09
 51
-90
  0
LINE
  5
ACC
330
A02
100
AcDbEntity
  8
Body009
100
AcDbLine
 10
-17.9165
 20
-29.8706
 30
0.0228754
 11
17.9165
 21
-29.8706
 31
0.0228754
  0
ARC
  5
ACD
330
A02
100
AcDbEntity
  8
Body009
100
AcDbCircle
 10
17.9165
 20
-26.8931
 30
-0.237619
 40
2.97796
100
AcDbArc
 50
-90
 51
-77.9098
  0
LINE
  5
ACE
330
A02
100
AcDbEntity
  8
Body009
100
AcDbLine
 10
18.5402
 20
-29.805
 30
0.0171399
 11
114.646
 21
-9.37702
 31
-1.77008
  0
ARC
  5
ACF
330
A02
100
AcDbEntity
  8
Body009
100
AcDbCircle
 10
115.27
 20
-12.2889
 30
-1.51532
 40
2.97796
100
AcDbArc
 50
90
 51
102.09
  0
LINE
  5
AD0
330
A02
100
AcDbEntity
  8
Body009
100
AcDbLine
 10
115.27
 20
-9.31147
 30
-1.77582
 11
144.955
 21
-9.31147
 31
-1.77582
  0
LINE
  5
AD1
330
A02
100
AcDbEntity
  8
Body009
100
AcDbLine
 10
144.955
 20
-9.31147
 30
-1.77582
 11
144.955
 21
-7.05761
 31
-1.973
  0
LINE
  5
AD2
330
A02
100
AcDbEntity
  8
Body009
100
AcDbLine
 10
144.955
 20
-7.05761
 30
-1.973
 11
165.44
 21
-7.05761
 31
-1.973
  0
ARC
  5
AD3
330
A02
100
AcDbEntity
  8
Body009
100
AcDbCircle
 10
165.44
 20
0.911947
 30
-2.67025
 40
7.99652
100
AcDbArc
 50
-90
 51
19.7138
  0
LINE
  5
AD4
330
A02
100
AcDbEntity
  8
Body009
100
AcDbLine
 10
172.968
 20
3.60934
 30
-2.90624
 11
139.994
 21
94.9355
 31
-10.8962
  0
ARC
  5
AD5
330
A02
100
AcDbEntity
  8
Body009
100
AcDbCircle
 10
132.466
 20
92.2381
 30
-10.6602
 40
7.96956
100
AcDbArc
 50
19.7138
 51
90.0002
  0
LINE
  5
AD6
330
A02
100
AcDbEntity
  8
Body009
100
AcDbLine
 10
103.473
 20
100.208
 30
-11.3575
 11
132.466
 21
100.208
 31
-11.3575
  0
LINE
  5
AD7
330
A02
100
AcDbEntity
  8
Body009
100
AcDbLine
 10
103.473
 20
100.208
 30
-11.3575
 11
72.3688
 21
93.5962
 31
-10.7791
  0
LINE
  5
AD8
330
A02
100
AcDbEntity
  8
Body009
100
AcDbLine
 10
72.005
 20
95.2947
 30
-10.9277
 11
72.3688
 21
93.5962
 31
-10.7791
  0
LINE
  5
AD9
330
A02
100
AcDbEntity
  8
Body009
100
AcDbLine
 10
72.005
 20
95.2947
 30
-10.9277
 11
23.3606
 21
84.955
 31
-10.0231
  0
ARC
  5
ADA
330
A02
100
AcDbEntity
  8
Body009
100
AcDbCircle
 10
22.7369
 20
87.8669
 30
-10.2778
 40
2.97796
100
AcDbArc
 50
-90
 51
-77.9098
  0
LINE
  5
ADB
330
A02
100
AcDbEntity
  8
Body009
100
AcDbLine
 10
22.7369
 20
84.8894
 30
-10.0173
 11
-22.7369
 21
84.8894
 31
-10.0173
  0
ARC
  5
ADC
330
A02
100
AcDbEntity
  8
Body009
100
AcDbCircle
 10
-22.7369
 20
87.8669
 30
-10.2778
 40
2.97746
100
AcDbArc
 50
-102.09
 51
-90
  0
LINE
  5
ADD
330
A02
100
AcDbEntity
  8
Body009
100
AcDbLine
 10
-23.3606
 20
84.955
 30
-10.0231
 11
-72.005
 21
95.2947
 31
-10.9277
  0
LINE
  5
ADE
330
A02
100
AcDbEntity
  8
Body009
100
AcDbLine
 10
-72.005
 20
95.2947
 30
-10.9277
 11
-72.3688
 21
93.5962
 31
-10.7791
  0
LINE
  5
ADF
330
A02
100
AcDbEntity
  8
Body009
100
AcDbLine
 10
-72.3688
 20
93.5962
 30
-10.7791
 11
-103.473
 21
100.208
 31
-11.3575
  0
LINE
  5
AE0
330
A02
100
AcDbEntity
  8
Body009
100
AcDbLine
 10
-103.473
 20
100.208
 30
-11.3575
 11
-132.176
 21
100.208
 31
-11.3575
  0
ARC
  5
AE1
330
A02
100
AcDbEntity
  8
Body009
100
AcDbCircle
 10
-132.176
 20
92.2381
 30
-10.6602
 40
7.99722
100
AcDbArc
 50
90
 51
162.472
  0
LINE
  5
AE2
330
A02
100
AcDbEntity
  8
Body009
100
AcDbLine
 10
-168.867
 20
3.32053
 30
-2.88097
 11
-139.802
 21
94.6466
 31
-10.871
  0
ARC
  5
AE3
330
A02
100
AcDbEntity
  8
Body009
100
AcDbCircle
 10
-161.241
 20
0.911947
 30
-2.67025
 40
7.96956
100
AcDbArc
 50
162.472
 51
-90
  0
CIRCLE
  5
AE4
330
A02
100
AcDbEntity
  8
Body009
100
AcDbCircle
 10
31.6634
 20
82.8215
 40
1.5
  0
CIRCLE
  5
AE5
330
A02
100
AcDbEntity
  8
Body009
100
AcDbCircle
 10
-31.6634
 20
82.8215
 40
1.5
  0
CIRCLE
  5
AE6
330
A02
100
AcDbEntity
  8
Body009
100
AcDbCircle
 10
117.68
 20
98.1248
 40
1.5
  0
CIRCLE
  5
AE7
330
A02
100
AcDbEntity
  8
Body009
100
AcDbCircle
 10
31.1363
 20
-23.2294
 40
1.5
  0
CIRCLE
  5
AE8
330
A02
100
AcDbEntity
  8
Body009
100
AcDbCircle
 10
-31.1363
 20
-23.2294
 40
1.5
  0
CIRCLE
  5
AE9
330
A02
100
AcDbEntity
  8
Body009
100
AcDbCircle
 10
-117.68
 20
98.1248
 40
1.5
  0
CIRCLE
  5
AEA
330
A02
100
AcDbEntity
  8
Body009
100
AcDbCircle
 10
152.877
 20
-4.99967
 40
1.5
  0
CIRCLE
  5
AEB
330
A02
100
AcDbEntity
  8
Body009
100
AcDbCircle
 10
-152.877
 20
-4.99967
 40
1.5
  0
ENDSEC
  0
SECTION
  2
OBJECTS
  0
DICTIONARY
  5
F000
330
0
100
AcDbDictionary
  3
ACAD_GROUP
350
F001
  0
DICTIONARY
  5
F001
330
F000
100
AcDbDictionary
  0
ENDSEC
  0
EOF